<svg xmlns="http://www.w3.org/2000/svg" xmlns:xlink="http://www.w3.org/1999/xlink" width="79" height="55" viewBox="0 0 79 55">
  <defs>
    <clipPath id="clip-path">
      <rect id="Rectangle_5" data-name="Rectangle 5" width="79" height="55" transform="translate(993 1840)" fill="#fff"/>
    </clipPath>
  </defs>
  <g id="twitter" transform="translate(-993 -1840)" clip-path="url(#clip-path)">
    <g id="g4" transform="translate(995.871 1831.798)">
      <path id="path2" d="M70.465,14.714A27.8,27.8,0,0,1,62.493,16.9a13.921,13.921,0,0,0,6.1-7.683,27.718,27.718,0,0,1-8.816,3.368,13.891,13.891,0,0,0-24.016,9.507,14.179,14.179,0,0,0,.358,3.159A39.426,39.426,0,0,1,7.5,10.741a13.907,13.907,0,0,0,4.3,18.538,13.851,13.851,0,0,1-6.289-1.738v.179A13.891,13.891,0,0,0,16.651,41.335a14.094,14.094,0,0,1-6.271.238,13.892,13.892,0,0,0,12.971,9.639A27.861,27.861,0,0,1,6.107,57.158a28.315,28.315,0,0,1-3.314-.194A39.265,39.265,0,0,0,24.073,63.2c25.542,0,39.5-21.155,39.5-39.5,0-.6-.015-1.2-.042-1.794a28.226,28.226,0,0,0,6.923-7.183Z" fill="#fff"/>
    </g>
  </g>
</svg>
